<svg xmlns="http://www.w3.org/2000/svg" xmlns:xlink="http://www.w3.org/1999/xlink" width="1000" zoomAndPan="magnify" viewBox="0 0 750 749.999995" height="1000" preserveAspectRatio="xMidYMid meet" version="1.0"><defs><g/><clipPath id="6d8d95442e"><rect x="0" width="644" y="0" height="213"/></clipPath><clipPath id="f8f537fe12"><path d="M 144.699219 377 L 237 377 L 237 423.804688 L 144.699219 423.804688 Z M 144.699219 377 " clip-rule="nonzero"/></clipPath><clipPath id="9435e04271"><path d="M 149 330.804688 L 241.449219 330.804688 L 241.449219 378 L 149 378 Z M 149 330.804688 " clip-rule="nonzero"/></clipPath></defs><g transform="matrix(1, 0, 0, 1, 51, 245)"><g clip-path="url(#6d8d95442e)"><g fill="#ffffff" fill-opacity="1"><g transform="translate(1.986298, 175.312598)"><g><path d="M 29.203125 -30.453125 C 29.554688 -26.410156 31.515625 -23.144531 35.078125 -20.65625 C 38.640625 -18.164062 43.207031 -16.921875 48.78125 -16.921875 C 54.125 -16.921875 58.335938 -17.78125 61.421875 -19.5 C 64.515625 -21.21875 66.0625 -23.679688 66.0625 -26.890625 C 66.0625 -29.265625 65.347656 -31.039062 63.921875 -32.21875 C 62.492188 -33.40625 60.472656 -34.265625 57.859375 -34.796875 C 55.253906 -35.335938 50.984375 -35.960938 45.046875 -36.671875 C 36.972656 -37.742188 30.265625 -39.109375 24.921875 -40.765625 C 19.585938 -42.429688 15.316406 -45.046875 12.109375 -48.609375 C 8.898438 -52.171875 7.296875 -56.914062 7.296875 -62.84375 C 7.296875 -68.78125 8.925781 -74.035156 12.1875 -78.609375 C 15.457031 -83.179688 20.054688 -86.710938 25.984375 -89.203125 C 31.921875 -91.691406 38.75 -92.9375 46.46875 -92.9375 C 58.9375 -92.820312 69 -90.148438 76.65625 -84.921875 C 84.3125 -79.703125 88.4375 -72.460938 89.03125 -63.203125 L 65.171875 -63.203125 C 64.804688 -66.648438 62.992188 -69.46875 59.734375 -71.65625 C 56.472656 -73.851562 52.289062 -74.953125 47.1875 -74.953125 C 42.4375 -74.953125 38.609375 -74.0625 35.703125 -72.28125 C 32.796875 -70.5 31.34375 -68.128906 31.34375 -65.171875 C 31.34375 -63.023438 32.113281 -61.414062 33.65625 -60.34375 C 35.195312 -59.28125 37.210938 -58.507812 39.703125 -58.03125 C 42.191406 -57.5625 46.347656 -57.03125 52.171875 -56.4375 C 64.515625 -55.007812 73.976562 -52.367188 80.5625 -48.515625 C 87.15625 -44.660156 90.453125 -38.046875 90.453125 -28.671875 C 90.453125 -22.734375 88.695312 -17.507812 85.1875 -13 C 81.6875 -8.488281 76.820312 -5.015625 70.59375 -2.578125 C 64.363281 -0.148438 57.15625 1.0625 48.96875 1.0625 C 36.257812 1.0625 25.925781 -1.753906 17.96875 -7.390625 C 10.019531 -13.023438 5.8125 -20.710938 5.34375 -30.453125 Z M 29.203125 -30.453125 "/></g></g></g><g fill="#ffffff" fill-opacity="1"><g transform="translate(86.915044, 175.312598)"><g/></g></g><g fill="#ffffff" fill-opacity="1"><g transform="translate(119.8519, 175.312598)"><g/></g></g><g fill="#ffffff" fill-opacity="1"><g transform="translate(152.788757, 175.312598)"><g/></g></g><g fill="#ffffff" fill-opacity="1"><g transform="translate(185.732331, 175.312598)"><g><path d="M 96.671875 -34.71875 C 95.015625 -23.5625 90.296875 -14.804688 82.515625 -8.453125 C 74.742188 -2.109375 64.6875 1.0625 52.34375 1.0625 C 42.851562 1.0625 34.546875 -0.863281 27.421875 -4.71875 C 20.296875 -8.570312 14.800781 -14.0625 10.9375 -21.1875 C 7.082031 -28.3125 5.15625 -36.503906 5.15625 -45.765625 C 5.15625 -55.140625 7.082031 -63.359375 10.9375 -70.421875 C 14.800781 -77.484375 20.320312 -82.941406 27.5 -86.796875 C 34.6875 -90.648438 43.03125 -92.578125 52.53125 -92.578125 C 64.75 -92.578125 74.71875 -89.460938 82.4375 -83.234375 C 90.15625 -77.003906 94.898438 -68.367188 96.671875 -57.328125 L 70.6875 -57.328125 C 69.613281 -61.835938 67.472656 -65.425781 64.265625 -68.09375 C 61.066406 -70.769531 57.09375 -72.109375 52.34375 -72.109375 C 45.8125 -72.109375 40.585938 -69.675781 36.671875 -64.8125 C 32.753906 -59.945312 30.796875 -53.597656 30.796875 -45.765625 C 30.796875 -37.921875 32.753906 -31.566406 36.671875 -26.703125 C 40.585938 -21.835938 45.8125 -19.40625 52.34375 -19.40625 C 57.207031 -19.40625 61.269531 -20.769531 64.53125 -23.5 C 67.800781 -26.226562 69.910156 -29.96875 70.859375 -34.71875 Z M 96.671875 -34.71875 "/></g></g></g><g fill="#ffffff" fill-opacity="1"><g transform="translate(275.998255, 175.312598)"><g><path d="M 21.359375 -129.625 C 25.515625 -129.625 28.957031 -128.285156 31.6875 -125.609375 C 34.414062 -122.941406 35.78125 -119.585938 35.78125 -115.546875 C 35.78125 -111.515625 34.414062 -108.132812 31.6875 -105.40625 C 28.957031 -102.675781 25.515625 -101.3125 21.359375 -101.3125 C 17.210938 -101.3125 13.742188 -102.675781 10.953125 -105.40625 C 8.160156 -108.132812 6.765625 -111.515625 6.765625 -115.546875 C 6.765625 -119.585938 8.160156 -122.941406 10.953125 -125.609375 C 13.742188 -128.285156 17.210938 -129.625 21.359375 -129.625 Z M 8.71875 -91.515625 L 33.828125 -91.515625 L 33.828125 0 L 8.71875 0 Z M 8.71875 -91.515625 "/></g></g></g><g fill="#ffffff" fill-opacity="1"><g transform="translate(307.338559, 175.312598)"><g><path d="M 21.359375 -29.90625 C 21.597656 -24.445312 24.003906 -19.992188 28.578125 -16.546875 C 33.148438 -13.109375 39.054688 -11.390625 46.296875 -11.390625 C 52.703125 -11.390625 57.890625 -12.664062 61.859375 -15.21875 C 65.835938 -17.769531 67.828125 -21.125 67.828125 -25.28125 C 67.828125 -28.84375 66.878906 -31.570312 64.984375 -33.46875 C 63.085938 -35.375 60.625 -36.679688 57.59375 -37.390625 C 54.570312 -38.097656 50.269531 -38.8125 44.6875 -39.53125 C 36.851562 -40.476562 30.441406 -41.722656 25.453125 -43.265625 C 20.472656 -44.804688 16.4375 -47.269531 13.34375 -50.65625 C 10.257812 -54.039062 8.71875 -58.695312 8.71875 -64.625 C 8.71875 -69.96875 10.234375 -74.71875 13.265625 -78.875 C 16.296875 -83.03125 20.421875 -86.265625 25.640625 -88.578125 C 30.859375 -90.890625 36.734375 -92.046875 43.265625 -92.046875 C 53.953125 -92.046875 62.644531 -89.550781 69.34375 -84.5625 C 76.050781 -79.582031 79.765625 -72.460938 80.484375 -63.203125 L 65.875 -63.203125 C 65.28125 -67.953125 62.960938 -71.867188 58.921875 -74.953125 C 54.890625 -78.046875 49.847656 -79.59375 43.796875 -79.59375 C 37.628906 -79.59375 32.644531 -78.316406 28.84375 -75.765625 C 25.039062 -73.210938 23.140625 -69.859375 23.140625 -65.703125 C 23.140625 -62.609375 24.03125 -60.226562 25.8125 -58.5625 C 27.59375 -56.90625 29.878906 -55.78125 32.671875 -55.1875 C 35.460938 -54.59375 39.707031 -53.941406 45.40625 -53.234375 C 53.351562 -52.285156 59.910156 -50.976562 65.078125 -49.3125 C 70.242188 -47.65625 74.394531 -44.984375 77.53125 -41.296875 C 80.675781 -37.617188 82.25 -32.632812 82.25 -26.34375 C 82.25 -20.882812 80.644531 -16.078125 77.4375 -11.921875 C 74.238281 -7.773438 69.910156 -4.570312 64.453125 -2.3125 C 58.992188 -0.0625 52.941406 1.0625 46.296875 1.0625 C 34.421875 1.0625 24.890625 -1.664062 17.703125 -7.125 C 10.523438 -12.582031 6.878906 -20.175781 6.765625 -29.90625 Z M 21.359375 -29.90625 "/></g></g></g><g fill="#ffffff" fill-opacity="1"><g transform="translate(382.827056, 175.312598)"><g><path d="M 16.375 -90.796875 L 44.328125 -16.734375 L 71.390625 -90.796875 L 86.890625 -90.796875 L 45.046875 15.3125 C 42.910156 20.769531 41.007812 24.863281 39.34375 27.59375 C 37.6875 30.320312 35.609375 32.335938 33.109375 33.640625 C 30.617188 34.953125 27.296875 35.609375 23.140625 35.609375 L 5.703125 35.609375 L 5.703125 22.25 L 18.6875 22.25 C 21.539062 22.25 23.675781 21.953125 25.09375 21.359375 C 26.519531 20.765625 27.675781 19.785156 28.5625 18.421875 C 29.457031 17.054688 30.5625 14.773438 31.875 11.578125 L 36.5 0.71875 L 0.890625 -90.796875 Z M 16.375 -90.796875 "/></g></g></g><g fill="#ffffff" fill-opacity="1"><g transform="translate(459.383848, 175.312598)"><g><path d="M 54.484375 -91.875 C 65.523438 -91.875 74.394531 -88.550781 81.09375 -81.90625 C 87.800781 -75.257812 91.15625 -64.8125 91.15625 -50.5625 L 91.15625 0 L 76.5625 0 L 76.5625 -49.671875 C 76.5625 -59.046875 74.453125 -66.195312 70.234375 -71.125 C 66.023438 -76.050781 59.941406 -78.515625 51.984375 -78.515625 C 43.441406 -78.515625 36.738281 -75.546875 31.875 -69.609375 C 27.007812 -63.679688 24.578125 -55.613281 24.578125 -45.40625 L 24.578125 0 L 9.96875 0 L 9.96875 -90.796875 L 22.609375 -90.796875 L 24.578125 -78.515625 C 31.453125 -87.421875 41.421875 -91.875 54.484375 -91.875 Z M 54.484375 -91.875 "/></g></g></g><g fill="#ffffff" fill-opacity="1"><g transform="translate(548.047395, 175.312598)"><g><path d="M 90.984375 -31.34375 C 89.085938 -21.25 84.632812 -13.320312 77.625 -7.5625 C 70.625 -1.8125 61.722656 1.0625 50.921875 1.0625 C 42.140625 1.0625 34.425781 -0.894531 27.78125 -4.8125 C 21.132812 -8.726562 15.96875 -14.21875 12.28125 -21.28125 C 8.601562 -28.34375 6.765625 -36.441406 6.765625 -45.578125 C 6.765625 -54.722656 8.632812 -62.796875 12.375 -69.796875 C 16.113281 -76.796875 21.363281 -82.222656 28.125 -86.078125 C 34.894531 -89.941406 42.671875 -91.875 51.453125 -91.875 C 62.140625 -91.875 70.953125 -89.023438 77.890625 -83.328125 C 84.835938 -77.628906 89.203125 -69.796875 90.984375 -59.828125 L 76.203125 -59.828125 C 74.773438 -65.640625 71.804688 -70.265625 67.296875 -73.703125 C 62.785156 -77.148438 57.328125 -78.875 50.921875 -78.875 C 42.253906 -78.875 35.21875 -75.785156 29.8125 -69.609375 C 24.414062 -63.441406 21.71875 -55.429688 21.71875 -45.578125 C 21.71875 -35.609375 24.414062 -27.503906 29.8125 -21.265625 C 35.21875 -15.035156 42.253906 -11.921875 50.921875 -11.921875 C 57.566406 -11.921875 63.144531 -13.640625 67.65625 -17.078125 C 72.164062 -20.523438 75.070312 -25.28125 76.375 -31.34375 Z M 90.984375 -31.34375 "/></g></g></g></g></g><g clip-path="url(#f8f537fe12)"><path fill="#ffffff" d="M 236.5625 393.460938 C 229.992188 411.074219 212.988281 423.648438 193.113281 423.648438 C 174.085938 423.648438 157.703125 412.109375 150.582031 395.671875 L 144.699219 401.046875 L 146.769531 377.507812 C 146.769531 377.445312 146.761719 377.367188 146.761719 377.300781 L 146.796875 377.300781 L 146.796875 377.207031 L 170.734375 377.234375 L 162.117188 385.117188 C 165.613281 398.996094 178.164062 409.300781 193.113281 409.300781 C 204.863281 409.300781 215.15625 402.9375 220.726562 393.460938 Z M 236.5625 393.460938 " fill-opacity="1" fill-rule="nonzero"/></g><g clip-path="url(#9435e04271)"><path fill="#ffffff" d="M 165.640625 360.898438 C 171.238281 351.566406 181.457031 345.3125 193.113281 345.3125 C 208.019531 345.3125 220.515625 355.550781 224.066406 369.347656 L 215.523438 377.167969 L 225.105469 377.179688 C 225.105469 377.21875 225.117188 377.257812 225.117188 377.296875 L 239.46875 377.296875 C 239.46875 377.273438 239.46875 377.230469 239.46875 377.207031 L 241.554688 353.355469 L 235.589844 358.824219 C 228.425781 342.433594 212.09375 330.949219 193.113281 330.949219 C 173.328125 330.949219 156.402344 343.421875 149.761719 360.898438 Z M 165.640625 360.898438 " fill-opacity="1" fill-rule="nonzero"/></g></svg>